<svg xmlns="http://www.w3.org/2000/svg" width="300" height="300" fill-rule="evenodd" stroke-linejoin="round" stroke-miterlimit="1.414" clip-rule="evenodd" viewBox="0 0 128 128"><circle cx="64" cy="64" r="63" fill="#ffe20a"/><path fill-rule="nonzero" d="M88.051 33.684c-.489-.685-8.512-1.957-12.328-1.957-.881 0-1.566 0-1.859.196-6.654 8.903-10.372 17.807-16.83 25.831.098-2.251.098-4.501.098-7.045V31.14c0-1.272-4.207-1.37-7.926-1.37h-3.62s0 3.522-.098 5.381l-.097 1.37c-.783 17.221-1.37 40.9-1.37 60.078.489.489 3.913.587 7.24.587h5.186c.391 0 .489-1.37.489-3.327 0-2.544-.195-6.164-.195-8.904V69.104c.489.196 1.369.196 1.467.391 5.871 9.002 8.806 15.362 13.209 22.896 1.37 2.348 1.468 2.74 2.936 4.599.391.489 2.74.587 5.381.587 3.718 0 8.122-.294 8.122-.881 0-.88-1.566-3.326-1.86-3.816-5.381-8.316-5.479-9.001-10.665-17.514-1.761-2.838-5.773-9.589-8.023-11.937 6.262-7.828 10.176-13.503 20.743-29.745z"/></svg>
